<svg width="57" height="57" viewBox="0 0 57 57" fill="none" xmlns="http://www.w3.org/2000/svg">
<path d="M35.625 32.0625H32.0625V28.5H28.5V32.0625C28.5 32.4063 28.5 33.3147 30.7337 33.9025C32.0139 34.1291 33.1849 34.7683 34.0681 35.7225C34.9512 36.6767 35.498 37.8936 35.625 39.1875H39.1875V42.75H42.75V39.1875C42.75 38.4964 41.7489 37.6717 40.5163 37.3457C36.2591 36.2306 35.625 33.5587 35.625 32.0625ZM29.8288 37.3457C25.5716 36.2306 24.9375 33.5587 24.9375 32.0625H21.375V28.5H17.8125V42.75H21.375V39.1875H28.5V42.75H32.0625V39.1875C32.0625 38.4964 31.0614 37.6717 29.8288 37.3457Z" fill="#7E57C2"/>
<path d="M42.75 7.125H7.125V42.75C7.125 44.6397 7.87567 46.4519 9.21186 47.7881C10.5481 49.1243 12.3603 49.875 14.25 49.875H43.035C44.8491 49.875 46.5889 49.1544 47.8716 47.8716C49.1544 46.5889 49.875 44.8491 49.875 43.035V14.25C49.875 12.3603 49.1243 10.5481 47.7881 9.21186C46.4519 7.87567 44.6397 7.125 42.75 7.125ZM46.3125 32.0625H42.75V28.5H39.1875V32.0625C39.1875 32.4063 39.1875 33.3147 41.4212 33.9025C42.7014 34.1291 43.8724 34.7683 44.7556 35.7225C45.6387 36.6767 46.1855 37.8936 46.3125 39.1875V42.75C46.3125 43.6948 45.9372 44.601 45.2691 45.2691C44.601 45.9372 43.6948 46.3125 42.75 46.3125H39.1875C38.2427 46.3125 37.3365 45.9372 36.6684 45.2691C36.0003 44.601 35.625 43.6948 35.625 42.75C35.625 43.6948 35.2497 44.601 34.5816 45.2691C33.9135 45.9372 33.0073 46.3125 32.0625 46.3125H28.5C27.5552 46.3125 26.649 45.9372 25.9809 45.2691C25.3128 44.601 24.9375 43.6948 24.9375 42.75C24.9375 43.6948 24.5622 44.601 23.8941 45.2691C23.226 45.9372 22.3198 46.3125 21.375 46.3125H17.8125C16.8677 46.3125 15.9615 45.9372 15.2934 45.2691C14.6253 44.601 14.25 43.6948 14.25 42.75V28.5C14.25 27.5552 14.6253 26.649 15.2934 25.9809C15.9615 25.3128 16.8677 24.9375 17.8125 24.9375H21.375C22.3198 24.9375 23.226 25.3128 23.8941 25.9809C24.5622 26.649 24.9375 27.5552 24.9375 28.5C24.9375 27.5552 25.3128 26.649 25.9809 25.9809C26.649 25.3128 27.5552 24.9375 28.5 24.9375H32.0625C33.0073 24.9375 33.9135 25.3128 34.5816 25.9809C35.2497 26.649 35.625 27.5552 35.625 28.5C35.625 27.5552 36.0003 26.649 36.6684 25.9809C37.3365 25.3128 38.2427 24.9375 39.1875 24.9375H42.75C43.6948 24.9375 44.601 25.3128 45.2691 25.9809C45.9372 26.649 46.3125 27.5552 46.3125 28.5V32.0625Z" fill="#7E57C2"/>
</svg>
