<svg width="23" height="21" viewBox="0 0 23 21" fill="none" xmlns="http://www.w3.org/2000/svg">
<path d="M13.3501 10.75C13.3501 11.2804 13.1289 11.7891 12.7351 12.1642C12.3412 12.5393 11.8071 12.75 11.2501 12.75C10.6932 12.75 10.159 12.5393 9.76522 12.1642C9.3714 11.7891 9.15015 11.2804 9.15015 10.75C9.15015 10.2196 9.3714 9.71086 9.76522 9.33579C10.159 8.96071 10.6932 8.75 11.2501 8.75C11.8071 8.75 12.3412 8.96071 12.7351 9.33579C13.1289 9.71086 13.3501 10.2196 13.3501 10.75Z" stroke="#F597AD" stroke-width="1.5" stroke-linejoin="round"/>
<path d="M11.2502 16.338C11.1298 16.5247 10.9979 16.712 10.8544 16.9C9.47469 18.697 7.57104 19.754 6.00024 19.75L5.68314 17.675L3.50124 18.031C3.01194 16.618 3.53169 14.517 4.91034 12.719C2.78199 12.016 1.21434 10.647 0.750244 9.25L2.70324 8.319L1.68894 6.453C2.93529 5.57 5.39124 5.463 7.58469 6.154C7.58469 3.75 8.45304 1.62 9.71619 0.75L11.2502 2.25L12.7832 0.75C14.0474 1.62 14.9273 3.75 14.9147 6.154C17.1092 5.464 19.5652 5.57 20.8115 6.453L19.7983 8.319L21.7502 9.25C21.2861 10.646 19.7185 12.015 17.5901 12.72C18.9688 14.517 19.4885 16.618 18.9992 18.031L16.8173 17.675L16.5002 19.75C14.9294 19.754 13.0258 18.697 11.6461 16.9C11.5059 16.7181 11.3738 16.5306 11.2502 16.338Z" stroke="#F597AD" stroke-width="1.5" stroke-linejoin="round"/>
</svg>
