<svg width="136" height="136" viewBox="0 0 136 136" fill="none" xmlns="http://www.w3.org/2000/svg">
<path d="M107.984 27.5127C108.964 27.0449 110.065 26.8916 111.135 27.0752C112.205 27.2588 113.191 27.7705 113.959 28.5381C114.727 29.3057 115.237 30.2924 115.421 31.3623C115.604 32.4323 115.452 33.5331 114.984 34.5127L114.91 34.667L114.789 34.7891L63.7969 85.7803C62.904 86.7777 61.6604 87.3929 60.3242 87.4951L60.248 87.501L60.1719 87.4951C58.8347 87.3928 57.5903 86.777 56.6973 85.7783L39.708 68.7891L39.5869 68.667L39.5127 68.5127C39.0448 67.5331 38.8916 66.4323 39.0752 65.3623C39.2588 64.2923 39.7704 63.3058 40.5381 62.5381C41.3058 61.7704 42.2923 61.2588 43.3623 61.0752C44.3653 60.9031 45.3952 61.0272 46.3271 61.4287L46.5127 61.5127L46.667 61.5869L46.7891 61.708L60.0811 75L107.71 27.7051L107.831 27.5859L107.984 27.5127Z" fill="url(#paint0_linear_24_2)" stroke="url(#paint1_linear_24_2)" stroke-width="2"/>
<g filter="url(#filter0_d_24_2)">
<path d="M68.0001 119C58.8851 118.985 49.9406 116.528 42.0974 111.884C34.2541 107.24 27.7989 100.579 23.4035 92.5933C20.0669 86.6412 18.0022 80.0613 17.3401 73.27C16.303 63.3085 18.2219 53.262 22.8574 44.384C27.493 35.5059 34.6399 28.1892 43.4068 23.3467C49.3589 20.0101 55.9388 17.9454 62.7301 17.2833C69.497 16.5618 76.3399 17.2171 82.8468 19.21C83.4274 19.326 83.9773 19.562 84.4614 19.903C84.9455 20.2439 85.3529 20.6822 85.6577 21.1898C85.9625 21.6974 86.1579 22.2631 86.2313 22.8506C86.3047 23.4381 86.2546 24.0345 86.0841 24.6015C85.9136 25.1685 85.6265 25.6936 85.2412 26.1432C84.856 26.5927 84.381 26.9568 83.8468 27.2122C83.3126 27.4675 82.731 27.6084 82.1392 27.6258C81.5473 27.6432 80.9584 27.5368 80.4101 27.3133C74.9061 25.6552 69.1259 25.1157 63.4101 25.7267C57.7595 26.3005 52.2843 28.0164 47.3168 30.77C42.5292 33.4113 38.2963 36.9515 34.8501 41.1967C31.302 45.5212 28.6525 50.5103 27.0567 55.8717C25.4609 61.2331 24.951 66.8591 25.5568 72.42C26.1307 78.0706 27.8465 83.5458 30.6001 88.5133C33.2414 93.3009 36.7816 97.5339 41.0268 100.98C45.3514 104.528 50.3405 107.178 55.7019 108.773C61.0633 110.369 66.6892 110.879 72.2501 110.273C77.9008 109.699 83.3759 107.984 88.3435 105.23C93.131 102.589 97.364 99.0485 100.81 94.8033C104.358 90.4788 107.008 85.4897 108.604 80.1283C110.199 74.7669 110.709 69.141 110.103 63.58C109.991 62.4002 110.351 61.224 111.106 60.3101C111.86 59.3961 112.947 58.8194 114.127 58.7067C115.307 58.594 116.483 58.9545 117.397 59.709C118.311 60.4636 118.887 61.5502 119 62.73C120.032 72.6975 118.105 82.7481 113.459 91.6268C108.813 100.505 101.654 107.819 92.8768 112.653C86.8613 116.127 80.1798 118.289 73.2701 119H68.0001Z" fill="url(#paint2_linear_24_2)"/>
<path d="M62.7827 17.7803C69.4825 17.0658 76.2583 17.7154 82.7007 19.6885L82.7241 19.6953L82.7485 19.7002C83.2607 19.8025 83.7463 20.0108 84.1733 20.3115C84.6004 20.6124 84.9601 20.9994 85.229 21.4473C85.4979 21.8951 85.6701 22.3947 85.7349 22.9131C85.7996 23.4312 85.7553 23.957 85.605 24.457C85.4546 24.9572 85.2016 25.4208 84.8618 25.8174C84.5219 26.214 84.1026 26.5355 83.6313 26.7607C83.16 26.986 82.6467 27.1106 82.1245 27.126C81.6024 27.1413 81.0828 27.0477 80.5991 26.8506L80.5767 26.8418L80.5542 26.835L79.5073 26.5332C74.2559 25.0934 68.7777 24.6501 63.3569 25.2295C57.9973 25.7742 52.7937 27.3339 48.0229 29.8223L47.0757 30.332C42.5344 32.8374 38.4858 36.1424 35.1245 40.085L34.4634 40.8799C30.8732 45.2558 28.1923 50.3045 26.5776 55.7295C24.9634 61.1531 24.4469 66.8442 25.0591 72.4697V72.4707C25.6398 78.1884 27.3764 83.7284 30.1626 88.7549C32.8349 93.5987 36.4164 97.8815 40.7114 101.368C45.087 104.958 50.1347 107.638 55.5591 109.253C60.9842 110.868 66.6772 111.383 72.3042 110.771L72.3032 110.77C78.0199 110.189 83.5587 108.453 88.5845 105.667L88.5854 105.668C93.4292 102.996 97.7121 99.4132 101.199 95.1182L101.198 95.1172C104.787 90.7418 107.468 85.6946 109.083 80.2705C110.697 74.8475 111.213 69.1571 110.601 63.5322C110.501 62.4845 110.822 61.4395 111.492 60.6279C112.162 59.8165 113.127 59.3042 114.174 59.2041C115.222 59.104 116.267 59.4246 117.079 60.0947C117.89 60.7648 118.402 61.7297 118.502 62.7773V62.7812C119.524 72.6508 117.616 82.603 113.016 91.3945C108.416 100.186 101.327 107.428 92.6353 112.215L92.6265 112.221C86.6798 115.654 80.0756 117.794 73.2456 118.5H68.0005L67.1558 118.491C58.4231 118.331 49.8758 115.909 42.3521 111.454C34.5858 106.856 28.1937 100.259 23.8413 92.3525L23.8394 92.3486C20.5367 86.457 18.4928 79.944 17.8374 73.2217V73.2178C16.8106 63.354 18.7103 53.4061 23.3003 44.6152C27.8904 35.8242 34.968 28.5793 43.6489 23.7842L43.6509 23.7832C49.5426 20.4805 56.0564 18.4366 62.7788 17.7812L62.7827 17.7803Z" stroke="#F5EAEA"/>
</g>
<defs>
<filter id="filter0_d_24_2" x="13.0659" y="16.999" width="110.206" height="110.001" filterUnits="userSpaceOnUse" color-interpolation-filters="sRGB">
<feFlood flood-opacity="0" result="BackgroundImageFix"/>
<feColorMatrix in="SourceAlpha" type="matrix" values="0 0 0 0 0 0 0 0 0 0 0 0 0 0 0 0 0 0 127 0" result="hardAlpha"/>
<feOffset dy="4"/>
<feGaussianBlur stdDeviation="2"/>
<feComposite in2="hardAlpha" operator="out"/>
<feColorMatrix type="matrix" values="0 0 0 0 0 0 0 0 0 0 0 0 0 0 0 0 0 0 0.25 0"/>
<feBlend mode="normal" in2="BackgroundImageFix" result="effect1_dropShadow_24_2"/>
<feBlend mode="normal" in="SourceGraphic" in2="effect1_dropShadow_24_2" result="shape"/>
</filter>
<linearGradient id="paint0_linear_24_2" x1="77.2483" y1="28" x2="77.2483" y2="86.4983" gradientUnits="userSpaceOnUse">
<stop stop-color="#C4DC8B"/>
<stop offset="1" stop-color="#E1A79C"/>
</linearGradient>
<linearGradient id="paint1_linear_24_2" x1="77.2483" y1="28" x2="77.2483" y2="86.4983" gradientUnits="userSpaceOnUse">
<stop stop-color="#C5DB8C"/>
<stop offset="1" stop-color="#DFA99A"/>
</linearGradient>
<linearGradient id="paint2_linear_24_2" x1="68.1686" y1="16.999" x2="68.1686" y2="119" gradientUnits="userSpaceOnUse">
<stop stop-color="#C4DC8B"/>
<stop offset="1" stop-color="#E1A79C"/>
</linearGradient>
</defs>
</svg>
