<svg width="59" height="59" viewBox="0 0 59 59" fill="none" xmlns="http://www.w3.org/2000/svg">
<path d="M21.3062 21.3065C19.1328 21.3065 17.0484 20.4431 15.5115 18.9062C13.9747 17.3694 13.1113 15.285 13.1113 13.1116C13.1113 10.9382 13.9747 8.8538 15.5115 7.31697C17.0484 5.78013 19.1328 4.91675 21.3062 4.91675H29.4998V21.3065M21.3062 21.3065H29.4998M21.3062 21.3065C19.1331 21.3065 17.049 22.1697 15.5124 23.7063C13.9758 25.2429 13.1126 27.327 13.1126 29.5001C13.1126 31.6732 13.9758 33.7572 15.5124 35.2938C17.049 36.8305 19.1331 37.6937 21.3062 37.6937H29.4998V21.3065" stroke="white" stroke-width="3"/>
<path d="M45.8898 29.5C45.8898 31.6734 45.0264 33.7578 43.4895 35.2947C41.9527 36.8315 39.8683 37.6949 37.6949 37.6949C35.5215 37.6949 33.4371 36.8315 31.9003 35.2947C30.3634 33.7578 29.5 31.6734 29.5 29.5C29.5 27.3266 30.3634 25.2422 31.9003 23.7054C33.4371 22.1686 35.5215 21.3052 37.6949 21.3052C39.8683 21.3052 41.9527 22.1686 43.4895 23.7054C45.0264 25.2422 45.8898 27.3266 45.8898 29.5ZM21.3064 37.6961H29.5V45.8897C29.4996 47.5102 29.0186 49.0941 28.118 50.4412C27.2174 51.7883 25.9375 52.8381 24.4403 53.4579C22.9431 54.0777 21.2957 54.2396 19.7064 53.9232C18.1172 53.6067 16.6574 52.8262 15.5118 51.6802C14.3661 50.5342 13.586 49.0742 13.2701 47.4849C12.9541 45.8955 13.1165 44.2482 13.7367 42.7511C14.357 41.2541 15.4072 39.9746 16.7545 39.0744C18.1019 38.1741 19.686 37.6961 21.3064 37.6961Z" stroke="white" stroke-width="3"/>
<path d="M29.5 4.91675H37.6936C39.867 4.91675 41.9514 5.78013 43.4883 7.31697C45.0251 8.8538 45.8885 10.9382 45.8885 13.1116C45.8885 15.285 45.0251 17.3694 43.4883 18.9062C41.9514 20.4431 39.867 21.3065 37.6936 21.3065H29.5V4.91675Z" stroke="white" stroke-width="3"/>
</svg>
