<svg width="35" height="31" viewBox="0 0 35 31" fill="none" xmlns="http://www.w3.org/2000/svg">
<path d="M17.5 21.7439C26.608 21.7439 34 18.9566 34 15.5003C34 12.0439 26.608 9.25659 17.5 9.25659C8.392 9.25659 1 12.0439 1 15.5003C1 18.9566 8.392 21.7439 17.5 21.7439Z" stroke="#F2BFDB" stroke-width="2" stroke-linecap="round" stroke-linejoin="round"/>
<path d="M12.0441 18.6218C16.5981 26.4264 22.7361 31.3768 25.7501 29.6597C28.7641 27.9204 27.5101 20.205 22.9561 12.3782C18.4021 4.57358 12.2641 -0.376753 9.25013 1.34026C6.23613 3.07956 7.49013 10.795 12.0441 18.6218Z" stroke="#F2BFDB" stroke-width="2" stroke-linecap="round" stroke-linejoin="round"/>
<path d="M12.0441 12.3782C7.49013 20.1828 6.23613 27.9204 9.25013 29.6597C12.2641 31.3768 18.4021 26.4264 22.9561 18.6218C27.5101 10.8172 28.7641 3.07956 25.7501 1.34026C22.7361 -0.376753 16.5981 4.57358 12.0441 12.3782Z" stroke="#F2BFDB" stroke-width="2" stroke-linecap="round" stroke-linejoin="round"/>
<path d="M18.5999 15.5002C18.5999 15.7959 18.484 16.0795 18.2777 16.2886C18.0714 16.4977 17.7916 16.6151 17.4999 16.6151C17.2082 16.6151 16.9284 16.4977 16.7221 16.2886C16.5158 16.0795 16.3999 15.7959 16.3999 15.5002C16.3999 15.2045 16.5158 14.9209 16.7221 14.7118C16.9284 14.5027 17.2082 14.3853 17.4999 14.3853C17.7916 14.3853 18.0714 14.5027 18.2777 14.7118C18.484 14.9209 18.5999 15.2045 18.5999 15.5002Z" stroke="#F2BFDB" stroke-width="2" stroke-linecap="round" stroke-linejoin="round"/>
</svg>
